<svg xmlns="http://www.w3.org/2000/svg" xmlns:xlink="http://www.w3.org/1999/xlink" width="200" zoomAndPan="magnify" viewBox="0 0 375 374.999991" height="200" preserveAspectRatio="xMidYMid meet" version="1.0"><defs><g/></defs><path fill="#0172bb" d="M 60.519531 156.757812 C 74.894531 156.625 85.226562 165.167969 87.824219 179.324219 C 88.078125 180.726562 87.238281 182.09375 85.871094 182.484375 C 85.855469 182.488281 85.839844 182.492188 85.824219 182.496094 C 84.308594 182.929688 82.734375 182.011719 82.386719 180.476562 C 79.867188 169.324219 71.835938 162.6875 60.421875 162.320312 C 58.847656 162.269531 57.652344 160.898438 57.789062 159.328125 C 57.789062 159.3125 57.789062 159.296875 57.792969 159.277344 C 57.914062 157.859375 59.09375 156.769531 60.519531 156.757812 " fill-opacity="1" fill-rule="nonzero"/><path fill="#0172bb" d="M 87.6875 160.011719 C 85.816406 162.277344 82.464844 162.597656 80.203125 160.726562 C 77.9375 158.855469 77.617188 155.5 79.484375 153.230469 C 81.355469 150.964844 84.707031 150.640625 86.972656 152.515625 C 89.238281 154.386719 89.558594 157.742188 87.6875 160.011719 " fill-opacity="1" fill-rule="nonzero"/><path fill="#db0f10" d="M 33.6875 186.496094 C 40.761719 173.964844 53.316406 169.273438 66.859375 174.101562 C 68.199219 174.582031 68.960938 175.992188 68.613281 177.375 C 68.609375 177.390625 68.605469 177.40625 68.601562 177.421875 C 68.21875 178.953125 66.636719 179.859375 65.136719 179.390625 C 54.230469 176 44.472656 179.648438 38.449219 189.363281 C 37.621094 190.699219 35.832031 191.054688 34.546875 190.148438 C 34.53125 190.140625 34.515625 190.132812 34.503906 190.121094 C 33.335938 189.304688 32.988281 187.738281 33.6875 186.496094 " fill-opacity="1" fill-rule="nonzero"/><path fill="#db0f10" d="M 50.085938 164.5625 C 51.109375 167.316406 49.714844 170.382812 46.960938 171.414062 C 44.210938 172.441406 41.148438 171.039062 40.121094 168.285156 C 39.09375 165.53125 40.492188 162.464844 43.242188 161.4375 C 45.996094 160.40625 49.058594 161.808594 50.085938 164.5625 " fill-opacity="1" fill-rule="nonzero"/><path fill="#fdb620" d="M 45.992188 224.632812 C 38.6875 212.230469 40.910156 199 51.859375 189.671875 C 52.941406 188.746094 54.542969 188.792969 55.566406 189.785156 C 55.578125 189.796875 55.589844 189.808594 55.601562 189.820312 C 56.730469 190.914062 56.726562 192.738281 55.570312 193.808594 C 47.1875 201.570312 45.460938 211.855469 50.851562 221.9375 C 51.59375 223.324219 51.007812 225.050781 49.582031 225.714844 C 49.566406 225.722656 49.550781 225.730469 49.535156 225.738281 C 48.246094 226.339844 46.714844 225.859375 45.992188 224.632812 " fill-opacity="1" fill-rule="nonzero"/><path fill="#fdb620" d="M 35.21875 199.445312 C 38.117188 199.933594 40.070312 202.679688 39.582031 205.578125 C 39.097656 208.480469 36.355469 210.4375 33.457031 209.949219 C 30.5625 209.460938 28.609375 206.714844 29.09375 203.816406 C 29.582031 200.917969 32.324219 198.960938 35.21875 199.445312 " fill-opacity="1" fill-rule="nonzero"/><path fill="#e53990" d="M 85.128906 233.03125 C 70.75 233.164062 60.417969 224.621094 57.824219 210.464844 C 57.566406 209.0625 58.40625 207.695312 59.773438 207.304688 C 59.792969 207.300781 59.808594 207.296875 59.824219 207.292969 C 61.335938 206.859375 62.910156 207.777344 63.257812 209.3125 C 65.78125 220.464844 73.8125 227.101562 85.226562 227.46875 C 86.796875 227.519531 87.996094 228.890625 87.859375 230.460938 C 87.855469 230.476562 87.855469 230.492188 87.855469 230.511719 C 87.734375 231.929688 86.550781 233.019531 85.128906 233.03125 " fill-opacity="1" fill-rule="nonzero"/><path fill="#e53990" d="M 57.960938 229.777344 C 59.828125 227.511719 63.179688 227.191406 65.445312 229.0625 C 67.710938 230.933594 68.03125 234.289062 66.160156 236.558594 C 64.292969 238.824219 60.941406 239.144531 58.675781 237.273438 C 56.410156 235.402344 56.089844 232.046875 57.960938 229.777344 " fill-opacity="1" fill-rule="nonzero"/><path fill="#24a620" d="M 111.957031 203.292969 C 104.886719 215.824219 92.332031 220.515625 78.789062 215.6875 C 77.449219 215.207031 76.6875 213.796875 77.03125 212.414062 C 77.035156 212.398438 77.039062 212.382812 77.042969 212.367188 C 77.425781 210.835938 79.007812 209.929688 80.511719 210.398438 C 91.417969 213.789062 101.171875 210.140625 107.195312 200.425781 C 108.027344 199.089844 109.8125 198.734375 111.101562 199.640625 C 111.117188 199.648438 111.128906 199.65625 111.144531 199.667969 C 112.308594 200.484375 112.660156 202.050781 111.957031 203.292969 " fill-opacity="1" fill-rule="nonzero"/><path fill="#24a620" d="M 95.5625 225.226562 C 94.535156 222.472656 95.933594 219.40625 98.683594 218.375 C 101.4375 217.347656 104.5 218.746094 105.527344 221.503906 C 106.554688 224.257812 105.15625 227.324219 102.402344 228.351562 C 99.652344 229.382812 96.589844 227.980469 95.5625 225.226562 " fill-opacity="1" fill-rule="nonzero"/><path fill="#32318f" d="M 99.65625 165.15625 C 106.957031 177.558594 104.734375 190.789062 93.789062 200.117188 C 92.703125 201.042969 91.101562 200.996094 90.082031 200.003906 C 90.070312 199.992188 90.058594 199.980469 90.042969 199.96875 C 88.914062 198.875 88.921875 197.050781 90.074219 195.980469 C 98.460938 188.214844 100.183594 177.933594 94.792969 167.851562 C 94.050781 166.464844 94.640625 164.738281 96.066406 164.074219 C 96.082031 164.066406 96.097656 164.058594 96.113281 164.050781 C 97.402344 163.449219 98.929688 163.929688 99.65625 165.15625 " fill-opacity="1" fill-rule="nonzero"/><path fill="#32318f" d="M 110.425781 190.339844 C 107.53125 189.855469 105.578125 187.109375 106.0625 184.210938 C 106.550781 181.308594 109.292969 179.351562 112.1875 179.839844 C 115.085938 180.328125 117.039062 183.074219 116.550781 185.972656 C 116.066406 188.871094 113.324219 190.828125 110.425781 190.339844 " fill-opacity="1" fill-rule="nonzero"/><g fill="#ff3131" fill-opacity="1"><g transform="translate(135.616474, 178.499988)"><g><path d="M 13.183594 -16.144531 L 13.183594 -5.460938 L 5.246094 -16.144531 L 1.585938 -16.144531 L 1.585938 0 L 5.140625 0 L 5.140625 -10.707031 L 13.050781 0 L 16.707031 0 L 16.707031 -16.144531 Z M 13.183594 -16.144531 "/></g></g></g><g fill="#ff3131" fill-opacity="1"><g transform="translate(154.728114, 178.499988)"><g><path d="M 8.207031 0.214844 C 12.027344 0.214844 14.933594 -2.125 14.933594 -5.164062 L 14.933594 -16.144531 L 11.382812 -16.144531 L 11.382812 -5.839844 C 11.382812 -4.199219 10.007812 -2.933594 8.207031 -2.933594 C 6.429688 -2.933594 5.058594 -4.199219 5.058594 -5.839844 L 5.058594 -16.144531 L 1.507812 -16.144531 L 1.507812 -5.164062 C 1.507812 -2.125 4.441406 0.214844 8.207031 0.214844 Z M 8.207031 0.214844 "/></g></g></g><g fill="#ff3131" fill-opacity="1"><g transform="translate(171.957145, 178.499988)"><g><path d="M 6.566406 0.214844 C 9.578125 0.214844 12.132812 -1.5625 12.132812 -4.574219 C 12.132812 -10.546875 4.707031 -9.066406 4.707031 -11.867188 C 4.707031 -12.78125 5.40625 -13.210938 6.269531 -13.210938 C 7.183594 -13.210938 8.097656 -12.699219 8.90625 -11.8125 L 11.273438 -14.070312 C 10.089844 -15.445312 8.289062 -16.359375 6.296875 -16.359375 C 3.738281 -16.359375 1.128906 -14.824219 1.128906 -11.597656 C 1.128906 -6.109375 8.582031 -7.425781 8.582031 -4.601562 C 8.582031 -3.714844 7.828125 -3.121094 6.59375 -3.121094 C 5.113281 -3.121094 3.957031 -3.957031 3.363281 -5.21875 L 0.429688 -3.390625 C 1.480469 -1.371094 3.738281 0.214844 6.566406 0.214844 Z M 6.566406 0.214844 "/></g></g></g><g fill="#ff3131" fill-opacity="1"><g transform="translate(185.501621, 178.499988)"><g><path d="M 11.460938 0 L 15.253906 0 L 9.445312 -16.144531 L 5.460938 -16.144531 L -0.351562 0 L 3.445312 0 L 4.441406 -3.039062 L 10.464844 -3.039062 Z M 5.382812 -6 L 7.453125 -12.402344 L 9.523438 -6 Z M 5.382812 -6 "/></g></g></g><g fill="#ff3131" fill-opacity="1"><g transform="translate(201.197661, 178.499988)"><g><path d="M 13.183594 -16.144531 L 13.183594 -5.460938 L 5.246094 -16.144531 L 1.585938 -16.144531 L 1.585938 0 L 5.140625 0 L 5.140625 -10.707031 L 13.050781 0 L 16.707031 0 L 16.707031 -16.144531 Z M 13.183594 -16.144531 "/></g></g></g><g fill="#ff3131" fill-opacity="1"><g transform="translate(220.309305, 178.499988)"><g><path d="M 11.542969 -16.144531 L -0.132812 -16.144531 L -0.132812 -12.996094 L 3.957031 -12.996094 L 3.957031 0 L 7.480469 0 L 7.480469 -12.996094 L 11.542969 -12.996094 Z M 11.542969 -16.144531 "/></g></g></g><g fill="#ff3131" fill-opacity="1"><g transform="translate(232.509061, 178.499988)"><g><path d="M 11.460938 0 L 15.253906 0 L 9.445312 -16.144531 L 5.460938 -16.144531 L -0.351562 0 L 3.445312 0 L 4.441406 -3.039062 L 10.464844 -3.039062 Z M 5.382812 -6 L 7.453125 -12.402344 L 9.523438 -6 Z M 5.382812 -6 "/></g></g></g><g fill="#ff3131" fill-opacity="1"><g transform="translate(248.205101, 178.499988)"><g><path d="M 10.007812 -6.644531 C 11.917969 -7.210938 13.265625 -8.988281 13.265625 -11.191406 C 13.265625 -13.9375 11.21875 -16.144531 8.449219 -16.144531 L 1.585938 -16.144531 L 1.585938 0 L 5.140625 0 L 5.140625 -6.242188 L 6.566406 -6.242188 L 10.546875 0 L 14.53125 0 Z M 7.910156 -9.175781 L 5.140625 -9.175781 L 5.140625 -12.996094 L 7.910156 -12.996094 C 9.039062 -12.996094 9.875 -12.1875 9.875 -11.085938 C 9.875 -9.957031 9.039062 -9.175781 7.910156 -9.175781 Z M 7.910156 -9.175781 "/></g></g></g><g fill="#ff3131" fill-opacity="1"><g transform="translate(263.390151, 178.499988)"><g><path d="M 11.460938 0 L 15.253906 0 L 9.445312 -16.144531 L 5.460938 -16.144531 L -0.351562 0 L 3.445312 0 L 4.441406 -3.039062 L 10.464844 -3.039062 Z M 5.382812 -6 L 7.453125 -12.402344 L 9.523438 -6 Z M 5.382812 -6 "/></g></g></g><g fill="#ff3131" fill-opacity="1"><g transform="translate(279.086191, 178.499988)"><g/></g></g><g fill="#ff3131" fill-opacity="1"><g transform="translate(286.337362, 178.499988)"><g><path d="M 14.503906 -16.144531 L 10.546875 -16.144531 L 7.101562 -10.683594 L 3.660156 -16.144531 L -0.351562 -16.144531 L 5.328125 -7.585938 L 5.328125 0 L 8.878906 0 L 8.878906 -7.613281 Z M 14.503906 -16.144531 "/></g></g></g><g fill="#ff3131" fill-opacity="1"><g transform="translate(301.307252, 178.499988)"><g><path d="M 9.28125 0.214844 C 13.882812 0.214844 17.570312 -3.496094 17.570312 -8.070312 C 17.570312 -12.644531 13.882812 -16.359375 9.28125 -16.359375 C 4.707031 -16.359375 0.996094 -12.644531 0.996094 -8.070312 C 0.996094 -3.496094 4.707031 0.214844 9.28125 0.214844 Z M 9.28125 -3.253906 C 6.566406 -3.253906 4.492188 -5.355469 4.492188 -8.070312 C 4.492188 -10.789062 6.566406 -12.886719 9.28125 -12.886719 C 12.027344 -12.886719 14.097656 -10.789062 14.097656 -8.070312 C 14.097656 -5.355469 12.027344 -3.253906 9.28125 -3.253906 Z M 9.28125 -3.253906 "/></g></g></g><g fill="#ff3131" fill-opacity="1"><g transform="translate(320.687843, 178.499988)"><g><path d="M 8.207031 0.214844 C 12.027344 0.214844 14.933594 -2.125 14.933594 -5.164062 L 14.933594 -16.144531 L 11.382812 -16.144531 L 11.382812 -5.839844 C 11.382812 -4.199219 10.007812 -2.933594 8.207031 -2.933594 C 6.429688 -2.933594 5.058594 -4.199219 5.058594 -5.839844 L 5.058594 -16.144531 L 1.507812 -16.144531 L 1.507812 -5.164062 C 1.507812 -2.125 4.441406 0.214844 8.207031 0.214844 Z M 8.207031 0.214844 "/></g></g></g><g fill="#ff3131" fill-opacity="1"><g transform="translate(337.916876, 178.499988)"><g><path d="M 11.542969 -16.144531 L -0.132812 -16.144531 L -0.132812 -12.996094 L 3.957031 -12.996094 L 3.957031 0 L 7.480469 0 L 7.480469 -12.996094 L 11.542969 -12.996094 Z M 11.542969 -16.144531 "/></g></g></g><g fill="#ff3131" fill-opacity="1"><g transform="translate(350.116621, 178.499988)"><g><path d="M 11.703125 -16.144531 L 11.703125 -9.660156 L 5.140625 -9.660156 L 5.140625 -16.144531 L 1.585938 -16.144531 L 1.585938 0 L 5.140625 0 L 5.140625 -6.511719 L 11.703125 -6.511719 L 11.703125 0 L 15.230469 0 L 15.230469 -16.144531 Z M 11.703125 -16.144531 "/></g></g></g><g fill="#ffbd59" fill-opacity="1"><g transform="translate(135.616474, 208.499986)"><g><path d="M 11.433594 -13.023438 L 11.433594 -16.144531 L 1.722656 -16.144531 L 1.722656 0 L 5.273438 0 L 5.273438 -6.511719 L 10.546875 -6.511719 L 10.546875 -9.632812 L 5.273438 -9.632812 L 5.273438 -13.023438 Z M 11.433594 -13.023438 "/></g></g></g><g fill="#ffbd59" fill-opacity="1"><g transform="translate(148.112068, 208.499986)"><g><path d="M 9.28125 0.214844 C 13.882812 0.214844 17.570312 -3.496094 17.570312 -8.070312 C 17.570312 -12.644531 13.882812 -16.359375 9.28125 -16.359375 C 4.707031 -16.359375 0.996094 -12.644531 0.996094 -8.070312 C 0.996094 -3.496094 4.707031 0.214844 9.28125 0.214844 Z M 9.28125 -3.253906 C 6.566406 -3.253906 4.492188 -5.355469 4.492188 -8.070312 C 4.492188 -10.789062 6.566406 -12.886719 9.28125 -12.886719 C 12.027344 -12.886719 14.097656 -10.789062 14.097656 -8.070312 C 14.097656 -5.355469 12.027344 -3.253906 9.28125 -3.253906 Z M 9.28125 -3.253906 "/></g></g></g><g fill="#ffbd59" fill-opacity="1"><g transform="translate(167.492656, 208.499986)"><g><path d="M 8.207031 0.214844 C 12.027344 0.214844 14.933594 -2.125 14.933594 -5.164062 L 14.933594 -16.144531 L 11.382812 -16.144531 L 11.382812 -5.839844 C 11.382812 -4.199219 10.007812 -2.933594 8.207031 -2.933594 C 6.429688 -2.933594 5.058594 -4.199219 5.058594 -5.839844 L 5.058594 -16.144531 L 1.507812 -16.144531 L 1.507812 -5.164062 C 1.507812 -2.125 4.441406 0.214844 8.207031 0.214844 Z M 8.207031 0.214844 "/></g></g></g><g fill="#ffbd59" fill-opacity="1"><g transform="translate(184.721684, 208.499986)"><g><path d="M 13.183594 -16.144531 L 13.183594 -5.460938 L 5.246094 -16.144531 L 1.585938 -16.144531 L 1.585938 0 L 5.140625 0 L 5.140625 -10.707031 L 13.050781 0 L 16.707031 0 L 16.707031 -16.144531 Z M 13.183594 -16.144531 "/></g></g></g><g fill="#ffbd59" fill-opacity="1"><g transform="translate(203.833327, 208.499986)"><g><path d="M 1.585938 0 L 6.914062 0 C 11.355469 0 14.988281 -3.605469 14.988281 -8.070312 C 14.988281 -12.539062 11.355469 -16.144531 6.914062 -16.144531 L 1.585938 -16.144531 Z M 5.140625 -3.148438 L 5.140625 -12.996094 L 6.886719 -12.996094 C 9.445312 -12.996094 11.433594 -10.871094 11.433594 -8.070312 C 11.433594 -5.273438 9.445312 -3.148438 6.886719 -3.148438 Z M 5.140625 -3.148438 "/></g></g></g><g fill="#161d29" fill-opacity="1"><g transform="translate(220.612562, 208.499986)"><g><path d="M 11.460938 0 L 15.253906 0 L 9.445312 -16.144531 L 5.460938 -16.144531 L -0.351562 0 L 3.445312 0 L 4.441406 -3.039062 L 10.464844 -3.039062 Z M 5.382812 -6 L 7.453125 -12.402344 L 9.523438 -6 Z M 5.382812 -6 "/></g></g></g><g fill="#161d29" fill-opacity="1"><g transform="translate(236.308599, 208.499986)"><g><path d="M 11.542969 -16.144531 L -0.132812 -16.144531 L -0.132812 -12.996094 L 3.957031 -12.996094 L 3.957031 0 L 7.480469 0 L 7.480469 -12.996094 L 11.542969 -12.996094 Z M 11.542969 -16.144531 "/></g></g></g><g fill="#161d29" fill-opacity="1"><g transform="translate(248.508352, 208.499986)"><g><path d="M 1.722656 0 L 5.273438 0 L 5.273438 -16.144531 L 1.722656 -16.144531 Z M 1.722656 0 "/></g></g></g><g fill="#161d29" fill-opacity="1"><g transform="translate(256.27051, 208.499986)"><g><path d="M 9.28125 0.214844 C 13.882812 0.214844 17.570312 -3.496094 17.570312 -8.070312 C 17.570312 -12.644531 13.882812 -16.359375 9.28125 -16.359375 C 4.707031 -16.359375 0.996094 -12.644531 0.996094 -8.070312 C 0.996094 -3.496094 4.707031 0.214844 9.28125 0.214844 Z M 9.28125 -3.253906 C 6.566406 -3.253906 4.492188 -5.355469 4.492188 -8.070312 C 4.492188 -10.789062 6.566406 -12.886719 9.28125 -12.886719 C 12.027344 -12.886719 14.097656 -10.789062 14.097656 -8.070312 C 14.097656 -5.355469 12.027344 -3.253906 9.28125 -3.253906 Z M 9.28125 -3.253906 "/></g></g></g><g fill="#161d29" fill-opacity="1"><g transform="translate(275.651098, 208.499986)"><g><path d="M 13.183594 -16.144531 L 13.183594 -5.460938 L 5.246094 -16.144531 L 1.585938 -16.144531 L 1.585938 0 L 5.140625 0 L 5.140625 -10.707031 L 13.050781 0 L 16.707031 0 L 16.707031 -16.144531 Z M 13.183594 -16.144531 "/></g></g></g><g fill="#161d29" fill-opacity="1"><g transform="translate(135.616474, 221.55831)"><g><path d="M 3.28125 -3.128906 L 3.28125 -2.148438 L 4.847656 -2.148438 C 4.582031 -1.550781 3.992188 -1.148438 3.289062 -1.148438 C 2.328125 -1.148438 1.585938 -1.890625 1.585938 -2.851562 C 1.585938 -3.8125 2.328125 -4.554688 3.289062 -4.554688 C 3.964844 -4.554688 4.515625 -4.191406 4.800781 -3.652344 L 5.882812 -4.210938 C 5.390625 -5.144531 4.410156 -5.78125 3.289062 -5.78125 C 1.664062 -5.78125 0.359375 -4.46875 0.359375 -2.851562 C 0.359375 -1.234375 1.664062 0.0742188 3.289062 0.0742188 C 4.90625 0.0742188 6.21875 -1.234375 6.21875 -2.851562 L 6.21875 -3.128906 Z M 3.28125 -3.128906 "/></g></g></g><g fill="#161d29" fill-opacity="1"><g transform="translate(145.769557, 221.55831)"><g><path d="M 3.535156 -2.347656 C 4.210938 -2.546875 4.6875 -3.175781 4.6875 -3.953125 C 4.6875 -4.925781 3.964844 -5.703125 2.984375 -5.703125 L 0.5625 -5.703125 L 0.5625 0 L 1.816406 0 L 1.816406 -2.207031 L 2.320312 -2.207031 L 3.726562 0 L 5.132812 0 Z M 2.796875 -3.242188 L 1.816406 -3.242188 L 1.816406 -4.589844 L 2.796875 -4.589844 C 3.195312 -4.589844 3.488281 -4.304688 3.488281 -3.917969 C 3.488281 -3.515625 3.195312 -3.242188 2.796875 -3.242188 Z M 2.796875 -3.242188 "/></g></g></g><g fill="#161d29" fill-opacity="1"><g transform="translate(154.430097, 221.55831)"><g><path d="M 4.039062 -4.601562 L 4.039062 -5.703125 L 0.609375 -5.703125 L 0.609375 0 L 4.039062 0 L 4.039062 -1.101562 L 1.863281 -1.101562 L 1.863281 -2.300781 L 3.726562 -2.300781 L 3.726562 -3.402344 L 1.863281 -3.402344 L 1.863281 -4.601562 Z M 4.039062 -4.601562 "/></g></g></g><g fill="#161d29" fill-opacity="1"><g transform="translate(162.43468, 221.55831)"><g><path d="M 4.050781 0 L 5.390625 0 L 3.335938 -5.703125 L 1.929688 -5.703125 L -0.125 0 L 1.21875 0 L 1.570312 -1.074219 L 3.699219 -1.074219 Z M 1.902344 -2.121094 L 2.632812 -4.382812 L 3.367188 -2.121094 Z M 1.902344 -2.121094 "/></g></g></g><g fill="#161d29" fill-opacity="1"><g transform="translate(171.275848, 221.55831)"><g><path d="M 4.078125 -5.703125 L -0.046875 -5.703125 L -0.046875 -4.589844 L 1.398438 -4.589844 L 1.398438 0 L 2.644531 0 L 2.644531 -4.589844 L 4.078125 -4.589844 Z M 4.078125 -5.703125 "/></g></g></g><g fill="#161d29" fill-opacity="1"><g transform="translate(178.881152, 221.55831)"><g><path d="M 4.039062 -4.601562 L 4.039062 -5.703125 L 0.609375 -5.703125 L 0.609375 0 L 4.039062 0 L 4.039062 -1.101562 L 1.863281 -1.101562 L 1.863281 -2.300781 L 3.726562 -2.300781 L 3.726562 -3.402344 L 1.863281 -3.402344 L 1.863281 -4.601562 Z M 4.039062 -4.601562 "/></g></g></g><g fill="#161d29" fill-opacity="1"><g transform="translate(186.885735, 221.55831)"><g><path d="M 3.535156 -2.347656 C 4.210938 -2.546875 4.6875 -3.175781 4.6875 -3.953125 C 4.6875 -4.925781 3.964844 -5.703125 2.984375 -5.703125 L 0.5625 -5.703125 L 0.5625 0 L 1.816406 0 L 1.816406 -2.207031 L 2.320312 -2.207031 L 3.726562 0 L 5.132812 0 Z M 2.796875 -3.242188 L 1.816406 -3.242188 L 1.816406 -4.589844 L 2.796875 -4.589844 C 3.195312 -4.589844 3.488281 -4.304688 3.488281 -3.917969 C 3.488281 -3.515625 3.195312 -3.242188 2.796875 -3.242188 Z M 2.796875 -3.242188 "/></g></g></g><g fill="#161d29" fill-opacity="1"><g transform="translate(195.546275, 221.55831)"><g/></g></g><g fill="#161d29" fill-opacity="1"><g transform="translate(201.40235, 221.55831)"><g><path d="M 5.125 -5.703125 L 3.726562 -5.703125 L 2.507812 -3.773438 L 1.292969 -5.703125 L -0.125 -5.703125 L 1.882812 -2.679688 L 1.882812 0 L 3.136719 0 L 3.136719 -2.691406 Z M 5.125 -5.703125 "/></g></g></g><g fill="#161d29" fill-opacity="1"><g transform="translate(209.986841, 221.55831)"><g><path d="M 3.28125 0.0742188 C 4.90625 0.0742188 6.207031 -1.234375 6.207031 -2.851562 C 6.207031 -4.46875 4.90625 -5.78125 3.28125 -5.78125 C 1.664062 -5.78125 0.351562 -4.46875 0.351562 -2.851562 C 0.351562 -1.234375 1.664062 0.0742188 3.28125 0.0742188 Z M 3.28125 -1.148438 C 2.320312 -1.148438 1.585938 -1.890625 1.585938 -2.851562 C 1.585938 -3.8125 2.320312 -4.554688 3.28125 -4.554688 C 4.25 -4.554688 4.980469 -3.8125 4.980469 -2.851562 C 4.980469 -1.890625 4.25 -1.148438 3.28125 -1.148438 Z M 3.28125 -1.148438 "/></g></g></g><g fill="#161d29" fill-opacity="1"><g transform="translate(220.130417, 221.55831)"><g><path d="M 2.898438 0.0742188 C 4.25 0.0742188 5.277344 -0.75 5.277344 -1.824219 L 5.277344 -5.703125 L 4.019531 -5.703125 L 4.019531 -2.0625 C 4.019531 -1.484375 3.535156 -1.035156 2.898438 -1.035156 C 2.273438 -1.035156 1.789062 -1.484375 1.789062 -2.0625 L 1.789062 -5.703125 L 0.53125 -5.703125 L 0.53125 -1.824219 C 0.53125 -0.75 1.570312 0.0742188 2.898438 0.0742188 Z M 2.898438 0.0742188 "/></g></g></g><g fill="#161d29" fill-opacity="1"><g transform="translate(229.513468, 221.55831)"><g><path d="M 4.078125 -5.703125 L -0.046875 -5.703125 L -0.046875 -4.589844 L 1.398438 -4.589844 L 1.398438 0 L 2.644531 0 L 2.644531 -4.589844 L 4.078125 -4.589844 Z M 4.078125 -5.703125 "/></g></g></g><g fill="#161d29" fill-opacity="1"><g transform="translate(237.118771, 221.55831)"><g><path d="M 4.136719 -5.703125 L 4.136719 -3.414062 L 1.816406 -3.414062 L 1.816406 -5.703125 L 0.5625 -5.703125 L 0.5625 0 L 1.816406 0 L 1.816406 -2.300781 L 4.136719 -2.300781 L 4.136719 0 L 5.378906 0 L 5.378906 -5.703125 Z M 4.136719 -5.703125 "/></g></g></g><g fill="#161d29" fill-opacity="1"><g transform="translate(246.645556, 221.55831)"><g/></g></g><g fill="#161d29" fill-opacity="1"><g transform="translate(252.50163, 221.55831)"><g/></g></g><g fill="#161d29" fill-opacity="1"><g transform="translate(135.616474, 231.698675)"><g><path d="M 3.28125 -3.128906 L 3.28125 -2.148438 L 4.847656 -2.148438 C 4.582031 -1.550781 3.992188 -1.148438 3.289062 -1.148438 C 2.328125 -1.148438 1.585938 -1.890625 1.585938 -2.851562 C 1.585938 -3.8125 2.328125 -4.554688 3.289062 -4.554688 C 3.964844 -4.554688 4.515625 -4.191406 4.800781 -3.652344 L 5.882812 -4.210938 C 5.390625 -5.144531 4.410156 -5.78125 3.289062 -5.78125 C 1.664062 -5.78125 0.359375 -4.46875 0.359375 -2.851562 C 0.359375 -1.234375 1.664062 0.0742188 3.289062 0.0742188 C 4.90625 0.0742188 6.21875 -1.234375 6.21875 -2.851562 L 6.21875 -3.128906 Z M 3.28125 -3.128906 "/></g></g></g><g fill="#161d29" fill-opacity="1"><g transform="translate(145.769557, 231.698675)"><g><path d="M 3.535156 -2.347656 C 4.210938 -2.546875 4.6875 -3.175781 4.6875 -3.953125 C 4.6875 -4.925781 3.964844 -5.703125 2.984375 -5.703125 L 0.5625 -5.703125 L 0.5625 0 L 1.816406 0 L 1.816406 -2.207031 L 2.320312 -2.207031 L 3.726562 0 L 5.132812 0 Z M 2.796875 -3.242188 L 1.816406 -3.242188 L 1.816406 -4.589844 L 2.796875 -4.589844 C 3.195312 -4.589844 3.488281 -4.304688 3.488281 -3.917969 C 3.488281 -3.515625 3.195312 -3.242188 2.796875 -3.242188 Z M 2.796875 -3.242188 "/></g></g></g><g fill="#161d29" fill-opacity="1"><g transform="translate(154.430097, 231.698675)"><g><path d="M 4.039062 -4.601562 L 4.039062 -5.703125 L 0.609375 -5.703125 L 0.609375 0 L 4.039062 0 L 4.039062 -1.101562 L 1.863281 -1.101562 L 1.863281 -2.300781 L 3.726562 -2.300781 L 3.726562 -3.402344 L 1.863281 -3.402344 L 1.863281 -4.601562 Z M 4.039062 -4.601562 "/></g></g></g><g fill="#161d29" fill-opacity="1"><g transform="translate(162.43468, 231.698675)"><g><path d="M 4.050781 0 L 5.390625 0 L 3.335938 -5.703125 L 1.929688 -5.703125 L -0.125 0 L 1.21875 0 L 1.570312 -1.074219 L 3.699219 -1.074219 Z M 1.902344 -2.121094 L 2.632812 -4.382812 L 3.367188 -2.121094 Z M 1.902344 -2.121094 "/></g></g></g><g fill="#161d29" fill-opacity="1"><g transform="translate(171.275848, 231.698675)"><g><path d="M 4.078125 -5.703125 L -0.046875 -5.703125 L -0.046875 -4.589844 L 1.398438 -4.589844 L 1.398438 0 L 2.644531 0 L 2.644531 -4.589844 L 4.078125 -4.589844 Z M 4.078125 -5.703125 "/></g></g></g><g fill="#161d29" fill-opacity="1"><g transform="translate(178.881152, 231.698675)"><g><path d="M 4.039062 -4.601562 L 4.039062 -5.703125 L 0.609375 -5.703125 L 0.609375 0 L 4.039062 0 L 4.039062 -1.101562 L 1.863281 -1.101562 L 1.863281 -2.300781 L 3.726562 -2.300781 L 3.726562 -3.402344 L 1.863281 -3.402344 L 1.863281 -4.601562 Z M 4.039062 -4.601562 "/></g></g></g><g fill="#161d29" fill-opacity="1"><g transform="translate(186.885735, 231.698675)"><g><path d="M 3.535156 -2.347656 C 4.210938 -2.546875 4.6875 -3.175781 4.6875 -3.953125 C 4.6875 -4.925781 3.964844 -5.703125 2.984375 -5.703125 L 0.5625 -5.703125 L 0.5625 0 L 1.816406 0 L 1.816406 -2.207031 L 2.320312 -2.207031 L 3.726562 0 L 5.132812 0 Z M 2.796875 -3.242188 L 1.816406 -3.242188 L 1.816406 -4.589844 L 2.796875 -4.589844 C 3.195312 -4.589844 3.488281 -4.304688 3.488281 -3.917969 C 3.488281 -3.515625 3.195312 -3.242188 2.796875 -3.242188 Z M 2.796875 -3.242188 "/></g></g></g><g fill="#161d29" fill-opacity="1"><g transform="translate(195.546275, 231.698675)"><g/></g></g><g fill="#161d29" fill-opacity="1"><g transform="translate(201.40235, 231.698675)"><g><path d="M 4.660156 -5.703125 L 4.660156 -1.929688 L 1.855469 -5.703125 L 0.5625 -5.703125 L 0.5625 0 L 1.816406 0 L 1.816406 -3.785156 L 4.609375 0 L 5.902344 0 L 5.902344 -5.703125 Z M 4.660156 -5.703125 "/></g></g></g><g fill="#161d29" fill-opacity="1"><g transform="translate(211.450864, 231.698675)"><g><path d="M 2.898438 0.0742188 C 4.25 0.0742188 5.277344 -0.75 5.277344 -1.824219 L 5.277344 -5.703125 L 4.019531 -5.703125 L 4.019531 -2.0625 C 4.019531 -1.484375 3.535156 -1.035156 2.898438 -1.035156 C 2.273438 -1.035156 1.789062 -1.484375 1.789062 -2.0625 L 1.789062 -5.703125 L 0.53125 -5.703125 L 0.53125 -1.824219 C 0.53125 -0.75 1.570312 0.0742188 2.898438 0.0742188 Z M 2.898438 0.0742188 "/></g></g></g><g fill="#161d29" fill-opacity="1"><g transform="translate(220.833915, 231.698675)"><g><path d="M 2.320312 0.0742188 C 3.382812 0.0742188 4.289062 -0.550781 4.289062 -1.617188 C 4.289062 -3.726562 1.664062 -3.203125 1.664062 -4.191406 C 1.664062 -4.515625 1.910156 -4.667969 2.214844 -4.667969 C 2.539062 -4.667969 2.863281 -4.488281 3.148438 -4.171875 L 3.984375 -4.972656 C 3.566406 -5.457031 2.929688 -5.78125 2.222656 -5.78125 C 1.320312 -5.78125 0.398438 -5.238281 0.398438 -4.097656 C 0.398438 -2.15625 3.03125 -2.625 3.03125 -1.625 C 3.03125 -1.3125 2.765625 -1.101562 2.328125 -1.101562 C 1.804688 -1.101562 1.398438 -1.398438 1.1875 -1.84375 L 0.152344 -1.199219 C 0.523438 -0.484375 1.320312 0.0742188 2.320312 0.0742188 Z M 2.320312 0.0742188 "/></g></g></g><g fill="#161d29" fill-opacity="1"><g transform="translate(228.914548, 231.698675)"><g><path d="M 4.050781 0 L 5.390625 0 L 3.335938 -5.703125 L 1.929688 -5.703125 L -0.125 0 L 1.21875 0 L 1.570312 -1.074219 L 3.699219 -1.074219 Z M 1.902344 -2.121094 L 2.632812 -4.382812 L 3.367188 -2.121094 Z M 1.902344 -2.121094 "/></g></g></g><g fill="#161d29" fill-opacity="1"><g transform="translate(237.755716, 231.698675)"><g><path d="M 4.660156 -5.703125 L 4.660156 -1.929688 L 1.855469 -5.703125 L 0.5625 -5.703125 L 0.5625 0 L 1.816406 0 L 1.816406 -3.785156 L 4.609375 0 L 5.902344 0 L 5.902344 -5.703125 Z M 4.660156 -5.703125 "/></g></g></g><g fill="#161d29" fill-opacity="1"><g transform="translate(247.80423, 231.698675)"><g><path d="M 4.078125 -5.703125 L -0.046875 -5.703125 L -0.046875 -4.589844 L 1.398438 -4.589844 L 1.398438 0 L 2.644531 0 L 2.644531 -4.589844 L 4.078125 -4.589844 Z M 4.078125 -5.703125 "/></g></g></g><g fill="#161d29" fill-opacity="1"><g transform="translate(255.409533, 231.698675)"><g><path d="M 4.050781 0 L 5.390625 0 L 3.335938 -5.703125 L 1.929688 -5.703125 L -0.125 0 L 1.21875 0 L 1.570312 -1.074219 L 3.699219 -1.074219 Z M 1.902344 -2.121094 L 2.632812 -4.382812 L 3.367188 -2.121094 Z M 1.902344 -2.121094 "/></g></g></g><g fill="#161d29" fill-opacity="1"><g transform="translate(264.250701, 231.698675)"><g><path d="M 3.535156 -2.347656 C 4.210938 -2.546875 4.6875 -3.175781 4.6875 -3.953125 C 4.6875 -4.925781 3.964844 -5.703125 2.984375 -5.703125 L 0.5625 -5.703125 L 0.5625 0 L 1.816406 0 L 1.816406 -2.207031 L 2.320312 -2.207031 L 3.726562 0 L 5.132812 0 Z M 2.796875 -3.242188 L 1.816406 -3.242188 L 1.816406 -4.589844 L 2.796875 -4.589844 C 3.195312 -4.589844 3.488281 -4.304688 3.488281 -3.917969 C 3.488281 -3.515625 3.195312 -3.242188 2.796875 -3.242188 Z M 2.796875 -3.242188 "/></g></g></g><g fill="#161d29" fill-opacity="1"><g transform="translate(272.911242, 231.698675)"><g><path d="M 4.050781 0 L 5.390625 0 L 3.335938 -5.703125 L 1.929688 -5.703125 L -0.125 0 L 1.21875 0 L 1.570312 -1.074219 L 3.699219 -1.074219 Z M 1.902344 -2.121094 L 2.632812 -4.382812 L 3.367188 -2.121094 Z M 1.902344 -2.121094 "/></g></g></g></svg>